<?xml version="1.0" standalone="no"?>
<!DOCTYPE svg PUBLIC "-//W3C//DTD SVG 20010904//EN"
 "http://www.w3.org/TR/2001/REC-SVG-20010904/DTD/svg10.dtd">
<svg version="1.0" xmlns="http://www.w3.org/2000/svg"
 width="260.000000pt" height="260.000000pt" viewBox="0 0 260.000000 260.000000"
 preserveAspectRatio="xMidYMid meet">
<metadata>
Created by potrace 1.14, written by Peter Selinger 2001-2017
</metadata>
<g transform="translate(0.000000,260.000000) scale(0.100000,-0.100000)"
fill="#000000" stroke="none">
<path d="M1261 2435 c-29 -14 -69 -32 -89 -41 -20 -10 -80 -37 -133 -62 l-96
-45 0 -223 c0 -123 4 -224 8 -224 4 0 50 20 102 45 53 25 98 45 101 45 3 0 38
16 79 36 l75 36 42 -22 c23 -12 72 -40 108 -62 37 -23 81 -49 97 -58 17 -10
133 -79 258 -154 126 -75 233 -136 238 -136 5 0 9 -4 9 -8 0 -4 22 -19 50 -33
27 -13 50 -27 50 -31 0 -5 4 -8 9 -8 5 0 39 -18 75 -40 65 -40 93 -50 81 -30
-7 11 -7 36 -5 285 2 174 2 175 -17 182 -10 4 -46 24 -81 45 -34 21 -67 38
-72 38 -6 0 -10 5 -10 10 0 6 -4 10 -9 10 -7 0 -120 63 -181 100 -13 9 -193
113 -245 142 -11 7 -78 46 -150 88 -71 42 -155 90 -185 108 l-56 31 -53 -24z"/>
<path d="M635 2155 c-17 -7 -58 -26 -90 -40 -33 -15 -94 -43 -135 -61 -41 -19
-86 -40 -100 -47 l-25 -13 0 -624 c0 -344 1 -632 3 -641 2 -9 18 -23 35 -32
29 -15 78 -42 187 -104 19 -11 62 -35 95 -53 33 -18 99 -55 146 -82 48 -26 90
-48 94 -48 5 0 251 137 305 170 8 5 34 19 58 31 23 13 39 26 35 30 -5 4 -37
23 -73 42 -36 18 -123 64 -195 102 -71 37 -155 82 -185 98 -30 17 -67 37 -82
44 -16 8 -28 22 -29 31 0 9 0 87 1 172 1 178 2 984 1 1018 -1 25 -4 26 -46 7z"/>
<path d="M1139 1585 l-164 -94 -1 -190 0 -191 164 -96 164 -95 126 72 c70 40
144 83 165 96 l37 23 0 194 c0 176 -2 194 -17 200 -10 3 -25 10 -33 16 -21 14
-219 129 -251 146 -25 12 -35 8 -190 -81z"/>
<path d="M1910 1258 c0 -172 -4 -318 -8 -324 -4 -6 -50 -34 -102 -63 -52 -28
-102 -56 -110 -61 -25 -16 -191 -110 -194 -110 -2 0 -54 -29 -115 -65 -62 -36
-116 -65 -120 -65 -5 0 -19 -8 -32 -19 -13 -10 -55 -35 -94 -55 -38 -21 -92
-51 -120 -67 -27 -16 -60 -34 -72 -39 -11 -5 -24 -13 -27 -18 -3 -6 83 -60
191 -121 l196 -111 111 64 c135 77 162 93 291 164 55 31 102 58 105 61 3 4 21
14 40 25 85 45 170 92 228 128 34 21 64 38 66 38 2 0 43 23 90 51 83 48 86 51
87 87 0 20 0 156 1 302 l1 265 -189 113 c-104 62 -197 117 -206 123 -17 9 -18
-8 -18 -303z"/>
</g>
</svg>
